<svg width="339" height="410" viewBox="0 0 339 410" fill="none" xmlns="http://www.w3.org/2000/svg">
<path d="M110.38 201.27C104.99 178.2 115.61 164.06 129.29 151.78C148.6 134.45 172.53 126.29 197.14 120.02C212.9 116.02 228.95 113.02 244.58 108.63C280.58 98.38 311.69 80.03 336.41 50.22C338.64 64.22 340.49 77.71 332.2 90.52C314.32 118.14 289.05 136.83 257.69 144.18C206.38 156.21 156.09 170 110.38 201.27Z" fill="url(#paint0_linear_6_105)"/>
<path d="M219.67 214.41C221.67 225.92 220.44 236.11 212.52 245.98C190.06 273.98 160.52 289.78 126.28 297.31C89.6701 305.36 54.8801 316.85 27.0501 343.38C19.2401 350.83 12.1401 359 4.49005 367.14C-3.95994 345.14 3.59005 320 23.6901 301.04C45.4101 280.56 71.7501 269.54 100.56 263.88C142.84 255.57 183.46 243.57 216.87 214.46C217.31 214.08 218.36 214.41 219.67 214.41Z" fill="url(#paint1_linear_6_105)"/>
<path d="M5.61009 310.21C0.610085 298.48 1.86009 290.1 10.3801 283.21C29.9501 267.44 48.3101 249.82 69.2601 236.21C110.11 209.65 151.68 183.93 198.19 167.83C202.79 166.24 207.53 165.07 212.25 163.83C214.724 163.383 217.221 163.076 219.73 162.91C221 177.13 224.47 190.11 213.38 202.86C191.67 227.86 162.58 238.5 132.46 247.55C120.46 251.17 108 253.55 95.7001 256.27C60.1701 264.09 29.0401 279.4 5.61009 310.21Z" fill="url(#paint2_linear_6_105)"/>
<path d="M336.85 0C340.3 14.54 339.46 26.79 331.76 38.38C308.09 74 273.26 92.56 233.19 103.09C224.55 105.36 215.69 106.81 206.97 108.81C172.7 116.65 139.58 127 114.04 154.15C109.04 144.4 112.27 138.1 119.27 133.42C148.64 113.81 177.64 93.59 207.72 75.13C246.51 51.34 286.2 29.01 325.53 6.13C328.89 4.11 332.39 2.38 336.85 0Z" fill="url(#paint3_linear_6_105)"/>
<path d="M219.04 255.34C222.04 264.68 220.6 271.53 213.15 278.34C183.15 305.81 148.47 326.06 113.28 345.8C80.04 364.51 47.23 384.23 14.23 403.5C10.83 405.5 7.41 407.45 4 409.43L0 407.58C3.32 397.31 4.75 385.86 10.29 376.98C32.74 340.98 65.84 319.24 107.23 310.8C137.37 304.65 166.78 296.95 192 278.46C201.4 271.59 209.77 263.36 219.04 255.34Z" fill="url(#paint4_linear_6_105)"/>
<path d="M336.56 105.06C338.56 112.46 338.84 119.47 331.45 126.77C302.57 155.33 269.85 178.13 230.82 197.01C230.82 185.07 230.26 174.79 231.25 164.66C231.47 162.33 236.76 159.87 240.14 158.55C258.61 151.36 278.14 146.34 295.46 136.99C310.43 128.88 322.81 116 336.56 105.06Z" fill="url(#paint5_linear_6_105)"/>
<defs>
<linearGradient id="paint0_linear_6_105" x1="108.95" y1="125.74" x2="338.3" y2="125.74" gradientUnits="userSpaceOnUse">
<stop stop-color="#1B00FF"/>
<stop offset="1" stop-color="#00AFFF"/>
</linearGradient>
<linearGradient id="paint1_linear_6_105" x1="1.07005" y1="290.71" x2="220.52" y2="290.71" gradientUnits="userSpaceOnUse">
<stop stop-color="#1B00FF"/>
<stop offset="1" stop-color="#00AFFF"/>
</linearGradient>
<linearGradient id="paint2_linear_6_105" x1="2.67009" y1="236.59" x2="221.26" y2="236.59" gradientUnits="userSpaceOnUse">
<stop stop-color="#1B00FF"/>
<stop offset="1" stop-color="#00AFFF"/>
</linearGradient>
<linearGradient id="paint3_linear_6_105" x1="111.58" y1="77.08" x2="338.79" y2="77.08" gradientUnits="userSpaceOnUse">
<stop stop-color="#1B00FF"/>
<stop offset="1" stop-color="#00AFFF"/>
</linearGradient>
<linearGradient id="paint4_linear_6_105" x1="0.04" y1="332.39" x2="220.54" y2="332.39" gradientUnits="userSpaceOnUse">
<stop stop-color="#1B00FF"/>
<stop offset="1" stop-color="#00AFFF"/>
</linearGradient>
<linearGradient id="paint5_linear_6_105" x1="284.22" y1="197.01" x2="284.22" y2="105.06" gradientUnits="userSpaceOnUse">
<stop stop-color="#1B00FF"/>
<stop offset="1" stop-color="#00AFFF"/>
</linearGradient>
</defs>
</svg>
