<svg width="155" height="155" viewBox="0 0 155 155" fill="none" xmlns="http://www.w3.org/2000/svg">
<rect x="0.728516" y="71.1755" width="154" height="5.97435" fill="#001970"/>
<rect opacity="0.3" x="0.728516" y="71.1755" width="41.2162" height="5.97435" fill="white"/>
<path d="M42.6049 77.1497H39.0195L40.8961 152.027H42.6049H44.3138L46.1949 77.1497H42.6049V77.1497Z" fill="#001970"/>
<path opacity="0.3" d="M40.8958 152.028H42.6046V78.7573L39.0781 79.4533L40.8958 152.028V152.028Z" fill="white"/>
<path d="M8.6186 77.1497H5.0332L6.90976 152.027H8.6186H10.3274L12.204 77.1497H8.6186V77.1497Z" fill="#001970"/>
<path opacity="0.3" d="M6.91005 152.028H8.6189V78.7573L5.08789 79.4533L6.91005 152.028V152.028Z" fill="white"/>
<path d="M146.839 77.1497H143.254L145.13 152.027H146.839H148.548L150.429 77.1497H146.839V77.1497Z" fill="#001970"/>
<path opacity="0.3" d="M145.128 152.028H146.837V78.7573L143.311 79.4533L145.128 152.028V152.028Z" fill="white"/>
<path d="M112.853 77.1497H109.268L111.144 152.027H112.853H114.562L116.438 77.1497H112.853V77.1497Z" fill="#001970"/>
<path opacity="0.3" d="M111.148 152.028H112.857V78.7573L109.33 79.4533L111.148 152.028V152.028Z" fill="white"/>
<path d="M73.8277 39.1915H37.2122C36.6094 39.1657 36.0317 39.4533 35.6578 39.9651C35.284 40.477 35.1591 41.1513 35.322 41.7793L40.1992 66.946C40.5217 68.4085 41.702 69.4626 43.0911 69.5289H79.7338C80.3355 69.5542 80.9122 69.2673 81.2858 68.7567C81.6595 68.2461 81.7851 67.5733 81.624 66.946L76.7422 41.7793C76.4192 40.3064 75.2267 39.2476 73.8277 39.1915V39.1915Z" fill="#263238"/>
<path d="M43.4096 68.0926C42.4727 68.0242 41.6826 67.3123 41.4514 66.3282L36.5742 41.1615C36.4897 40.8242 36.5514 40.4636 36.7419 40.1813C36.9396 39.9396 37.228 39.808 37.5261 39.8235H74.1688C75.1057 39.8919 75.8958 40.6038 76.1269 41.5879L81.0042 66.7546C81.0887 67.0919 81.027 67.4525 80.8364 67.7348C80.64 67.9783 80.3507 68.1103 80.0523 68.0926H43.4096Z" fill="white"/>
<path opacity="0.4" d="M71.0529 66.0786L66.4295 42.2155C66.3769 41.9295 66.4448 41.633 66.6148 41.4066C66.7848 41.1802 67.0392 41.0473 67.3089 41.0442H73.2558C73.6805 41.0477 74.046 41.3696 74.1352 41.8186L78.7586 65.662C78.8112 65.948 78.7433 66.2445 78.5733 66.471C78.4033 66.6974 78.1489 66.8302 77.8792 66.8334H71.9323C71.513 66.8319 71.1494 66.5198 71.0529 66.0786V66.0786Z" fill="#001970"/>
<path d="M39.6233 43.1318L39.4238 42.0977H46.7669L46.9663 43.1318H39.6233V43.1318Z" fill="#001970"/>
<path d="M43.0139 45.6999L42.8145 44.6658H55.6829L55.8869 45.6999H43.0139V45.6999Z" fill="#EBEBEB"/>
<path d="M43.6923 48.2631L43.4883 47.229H57.916L58.1154 48.2631H43.6923V48.2631Z" fill="#EBEBEB"/>
<path d="M44.3713 50.8312L44.1719 49.7971H55.7848L55.9887 50.8312H44.3713V50.8312Z" fill="#EBEBEB"/>
<path d="M41.8563 54.9924L41.6523 53.9583H46.2984L46.4978 54.9924H41.8563V54.9924Z" fill="#001970"/>
<path d="M45.2444 57.5556L45.0449 56.5215H50.7018L50.9058 57.5556H45.2444V57.5556Z" fill="#EBEBEB"/>
<path d="M52.2626 57.5556L52.0586 56.5215H57.72L57.9194 57.5556H52.2626V57.5556Z" fill="#EBEBEB"/>
<path d="M45.9241 60.1237L45.7246 59.0896H64.8528L65.0522 60.1237H45.9241V60.1237Z" fill="#EBEBEB"/>
<path d="M46.5998 62.6869L46.4004 61.6528H60.9868L61.1862 62.6869H46.5998V62.6869Z" fill="#EBEBEB"/>
<path d="M90.9318 69.3767H42.7215C41.4071 69.3767 40.5549 70.1854 40.8314 71.1754H93.8237C93.5517 70.1854 92.2463 69.3767 90.9318 69.3767Z" fill="#263238"/>
<path opacity="0.1" d="M26.8808 32.83L22.2529 8.98163C22.2018 8.69634 22.2704 8.40125 22.4402 8.17601C22.61 7.95077 22.8635 7.81861 23.1322 7.81519H60.5727C60.996 7.81822 61.361 8.13762 61.452 8.58465L66.08 32.4134C66.1326 32.6994 66.0647 32.9959 65.8947 33.2224C65.7247 33.4488 65.4703 33.5816 65.2006 33.5848H27.7601C27.3409 33.5833 26.9772 33.2712 26.8808 32.83Z" fill="#001970"/>
<path d="M40.1909 8.59911H32.3311L32.1543 7.68262H40.0141L40.1909 8.59911V8.59911Z" fill="#001970"/>
<path opacity="0.4" d="M38.9136 10.0598H35.7588L35.582 9.14331H38.7368L38.9136 10.0598V10.0598Z" fill="#001970"/>
<path opacity="0.4" d="M44.1609 10.0598H39.3018L39.125 9.14331H43.9841L44.1609 10.0598V10.0598Z" fill="#001970"/>
<path opacity="0.4" d="M46.2795 11.5154H36.0401L35.8633 10.5989H46.1073L46.2795 11.5154V11.5154Z" fill="#001970"/>
<path opacity="0.4" d="M44.9789 12.9758H36.3213L36.1445 12.0593H44.8021L44.9789 12.9758V12.9758Z" fill="#001970"/>
<path opacity="0.4" d="M50.7208 28.468H45.209L45.3858 29.3796H50.8976L50.7208 28.468V28.468Z" fill="#001970"/>
<path d="M43.8473 26.4682H35.7744L35.5977 25.5518H43.6705L43.8473 26.4682V26.4682Z" fill="#001970"/>
<path opacity="0.4" d="M47.0961 29.9236H39.5898L39.7666 30.8401H47.2728L47.0961 29.9236V29.9236Z" fill="#001970"/>
<path opacity="0.4" d="M44.8185 28.468H39.3066L39.4834 29.3796H44.9952L44.8185 28.468V28.468Z" fill="#001970"/>
<path opacity="0.4" d="M50.051 27.0073H39.0273L39.2041 27.9238H50.2278L50.051 27.0073V27.0073Z" fill="#001970"/>
<path d="M39.9118 1.7966H31.0186L30.8418 0.88501H39.735L39.9118 1.7966V1.7966Z" fill="#001970"/>
<path opacity="0.4" d="M44.3089 5.25684H34.5L34.6768 6.17333H44.4811L44.3089 5.25684V5.25684Z" fill="#001970"/>
<path opacity="0.4" d="M42.344 3.80103H34.2168L34.3936 4.71262H42.5208L42.344 3.80103V3.80103Z" fill="#001970"/>
<path opacity="0.4" d="M42.8832 2.34058H33.9355L34.1123 3.25707H43.06L42.8832 2.34058V2.34058Z" fill="#001970"/>
<path d="M39.8165 15.3481H33.6338L33.457 14.4316H39.6397L39.8165 15.3481V15.3481Z" fill="#001970"/>
<path opacity="0.4" d="M49.5212 18.8032H37.4414L37.6182 19.7197H49.6934L49.5212 18.8032V18.8032Z" fill="#001970"/>
<path opacity="0.4" d="M42.1663 17.3477H37.1621L37.3389 18.2641H42.343L42.1663 17.3477V17.3477Z" fill="#001970"/>
<path opacity="0.4" d="M47.5959 17.3477H42.5918L42.7686 18.2641H47.7727L47.5959 17.3477V17.3477Z" fill="#001970"/>
<path opacity="0.4" d="M47.9045 15.8872H36.8809L37.0576 16.8037H48.0767L47.9045 15.8872V15.8872Z" fill="#001970"/>
<path opacity="0.4" d="M47.881 23.1797H38.2852L38.4619 24.0913H48.0578L47.881 23.1797V23.1797Z" fill="#001970"/>
<path opacity="0.4" d="M40.798 21.7195H38.0059L38.1826 22.636H40.9703L40.798 21.7195V21.7195Z" fill="#001970"/>
<path opacity="0.4" d="M45.1601 21.7195H41.1758L41.3526 22.636H45.3368L45.1601 21.7195V21.7195Z" fill="#001970"/>
<path opacity="0.4" d="M48.7482 20.2634H37.7246L37.9014 21.175H48.925L48.7482 20.2634V20.2634Z" fill="#001970"/>
<path opacity="0.4" d="M57.4275 20.0185H53.4795L53.3027 19.1021H57.2553L57.4275 20.0185V20.0185Z" fill="#001970"/>
<path opacity="0.4" d="M63.998 20.0185H57.9151L57.7383 19.1021H63.8212L63.998 20.0185V20.0185Z" fill="#001970"/>
<path opacity="0.4" d="M66.5819 21.4792H53.7588L53.582 20.5627H66.4052L66.5819 21.4792V21.4792Z" fill="#001970"/>
<path opacity="0.4" d="M64.8798 22.9348H54.042L53.8652 22.0183H64.703L64.8798 22.9348V22.9348Z" fill="#001970"/>
<path opacity="0.4" d="M69.7343 14.2205H57.4551L57.6319 15.132H69.9111L69.7343 14.2205V14.2205Z" fill="#001970"/>
<path opacity="0.4" d="M67.3498 12.7603H57.1738L57.3506 13.6767H67.5221L67.3498 12.7603V12.7603Z" fill="#001970"/>
<path d="M65.5135 11.3047H54.3086L54.4854 12.2163H65.6903L65.5135 11.3047V11.3047Z" fill="#001970"/>
<path opacity="0.4" d="M70.2892 28.7668H55.168L55.3447 29.6833H70.466L70.2892 28.7668V28.7668Z" fill="#001970"/>
<path opacity="0.4" d="M61.151 27.3113H54.8867L55.0635 28.2229H61.3277L61.151 27.3113V27.3113Z" fill="#001970"/>
<path opacity="0.4" d="M67.9498 27.3113H61.6855L61.8623 28.2229H68.1266L67.9498 27.3113V27.3113Z" fill="#001970"/>
<path opacity="0.4" d="M68.4012 25.8511H54.6035L54.7803 26.7676H68.578L68.4012 25.8511V25.8511Z" fill="#001970"/>
<path opacity="0.4" d="M68.0235 33.1387H56.0117L56.1885 34.0552H68.2003L68.0235 33.1387V33.1387Z" fill="#001970"/>
<path opacity="0.4" d="M59.2252 31.6829H55.7305L55.9072 32.5994H59.402L59.2252 31.6829V31.6829Z" fill="#001970"/>
<path opacity="0.4" d="M64.6911 31.6829H59.7051L59.8819 32.5994H64.8679L64.6911 31.6829V31.6829Z" fill="#001970"/>
<path opacity="0.4" d="M69.2495 30.2224H55.4473L55.624 31.1389H69.4217L69.2495 30.2224V30.2224Z" fill="#001970"/>
<path opacity="0.4" d="M32.4986 34.2708H23.0977L23.2744 35.1872H32.6753L32.4986 34.2708V34.2708Z" fill="#001970"/>
<path opacity="0.4" d="M29.7198 32.8152H22.8164L22.9932 33.7268H29.892L29.7198 32.8152V32.8152Z" fill="#001970"/>
<path opacity="0.4" d="M37.1039 32.8152H30.2051L30.3819 33.7268H37.2852L37.1039 32.8152V32.8152Z" fill="#001970"/>
<path opacity="0.4" d="M36.3374 31.3547H22.5352L22.7119 32.2712H36.5096L36.3374 31.3547V31.3547Z" fill="#001970"/>
<path d="M141.896 61.6528H136.076L136.756 71.1755H141.216L141.896 61.6528V61.6528Z" fill="#001970"/>
<path opacity="0.4" d="M141.896 61.6528H136.076L136.756 71.1755H141.216L141.896 61.6528V61.6528Z" fill="white"/>
<path d="M15.0588 55.0415H23.4262L20.5706 71.1757H12.2031L15.0588 55.0415V55.0415Z" fill="#263238"/>
<path d="M25.7153 50.7185H13.8984L17.2073 71.1754H29.0242L25.7153 50.7185V50.7185Z" fill="#001970"/>
<path d="M13.2012 50.7185H13.8992L17.2081 71.1754H16.5101L13.2012 50.7185V50.7185Z" fill="#001970"/>
<path opacity="0.3" d="M13.2012 50.7185H13.8992L17.2081 71.1754H16.5101L13.2012 50.7185V50.7185Z" fill="black"/>
<path d="M18.9084 68.9846L16.3066 52.9043H24.0214L26.6186 68.9846H18.9084V68.9846Z" fill="white"/>
<path opacity="0.6" d="M26.2516 68.9846L23.6543 52.9043H24.0214L26.6187 68.9846H26.2516V68.9846Z" fill="#001970"/>
<path d="M84.87 25.2693C85.0379 25.6627 84.9835 26.0808 84.743 26.1988C84.5025 26.3168 84.1759 26.0955 84.008 25.707C83.8401 25.3185 83.8991 24.8956 84.135 24.7775C84.371 24.6595 84.7022 24.8562 84.87 25.2693Z" fill="#263238"/>
<path d="M85.0123 26.0461C85.0123 26.0461 85.1575 28.7313 84.7129 30.2854C85.6203 30.6149 86.6004 29.7936 86.6004 29.7936L85.0123 26.0461Z" fill="#FF5652"/>
<path d="M84.9127 22.0185C84.8741 22.0531 84.8265 22.0737 84.7766 22.0775C84.1776 22.0947 83.6225 22.422 83.2839 22.9578C83.2433 23.0402 83.1645 23.092 83.0783 23.0931C82.9922 23.0941 82.9123 23.0441 82.8701 22.9627C82.8279 22.8813 82.83 22.7814 82.8755 22.7021C83.2926 22.0158 83.9915 21.592 84.7494 21.5661C84.8511 21.56 84.945 21.6254 84.9821 21.7282C85.0193 21.8311 84.9913 21.9481 84.9127 22.0185Z" fill="#263238"/>
<path d="M98.229 24.6594C99.6309 29.9216 101.196 34.0034 103.106 36.3345C103.106 36.3345 103.143 40.4704 96.6409 42.4376C89.4903 44.6014 92.2308 39.6245 92.2308 39.6245C95.8606 37.4361 95.5157 34.1313 92.7843 32.8723L98.229 24.6594Z" fill="#FF8B7B"/>
<path d="M104.62 35.3262C104.493 33.4033 104.325 31.2099 103.231 31.1509C102.024 31.0919 95.037 34.4754 93.5443 36.8606C92.0516 39.2457 94.969 41.5817 94.969 41.5817L104.62 35.3262Z" fill="#263238"/>
<path d="M90.3216 65.1041L84.2871 64.8877L84.396 70.3662C84.396 70.3662 89.6591 69.7761 89.8905 68.2761L90.3216 65.1041Z" fill="#FF8B7B"/>
<path d="M81.0981 67.5777L80.4629 70.3809L84.3966 70.3711L84.2877 64.8926L81.0981 67.5777V67.5777Z" fill="#FF8B7B"/>
<path d="M114.542 42.3389L114.414 43.7455C114.374 44.1979 114.319 44.6405 114.265 45.088C114.16 45.9782 114.029 46.8683 113.888 47.7535C113.616 49.5289 113.262 51.2944 112.854 53.0698C112.439 54.8791 111.936 56.6635 111.347 58.4155C111.034 59.3155 110.708 60.2155 110.317 61.1302C109.924 62.0897 109.469 63.0182 108.956 63.9088C108.834 64.1399 108.679 64.4006 108.53 64.617C108.38 64.8333 108.235 65.1088 108.076 65.335C107.917 65.5612 107.749 65.8268 107.541 66.0579L107.246 66.4218C107.14 66.5561 107.028 66.6841 106.91 66.8054C106.001 67.7708 104.935 68.546 103.766 69.0922C101.972 69.926 100.069 70.4488 98.126 70.6414C97.2412 70.7545 96.3656 70.7987 95.508 70.8233C94.6505 70.8479 93.793 70.8233 92.9491 70.7742C92.1052 70.725 91.2703 70.6463 90.44 70.5381C89.6097 70.4299 88.8021 70.2873 87.9219 70.0955L88.0671 64.9563C90.9641 64.4072 93.8278 63.6681 96.6423 62.7432C97.2683 62.5226 97.8832 62.2666 98.4844 61.9761C98.9963 61.7419 99.4857 61.4537 99.9454 61.1154C100.213 60.9409 100.439 60.7019 100.608 60.4171L100.739 60.1909C100.8 60.0943 100.856 59.9941 100.907 59.8909C100.972 59.778 101.031 59.6614 101.084 59.5417C101.143 59.4138 101.207 59.2958 101.266 59.1532C101.799 57.8918 102.237 56.586 102.577 55.2484C102.949 53.8025 103.298 52.2977 103.58 50.7387C103.861 49.1797 104.133 47.606 104.383 46.0175L104.728 43.6274L105.041 41.3013L114.542 42.3389Z" fill="#093CAF"/>
<path opacity="0.2" d="M114.542 42.3389L114.414 43.7455C114.374 44.1979 114.319 44.6405 114.265 45.088C114.16 45.9782 114.029 46.8683 113.888 47.7535C113.616 49.5289 113.262 51.2944 112.854 53.0698C112.439 54.8791 111.936 56.6635 111.347 58.4155C111.034 59.3155 110.708 60.2155 110.317 61.1302C109.924 62.0897 109.469 63.0182 108.956 63.9088C108.834 64.1399 108.679 64.4006 108.53 64.617C108.38 64.8333 108.235 65.1088 108.076 65.335C107.917 65.5612 107.749 65.8268 107.541 66.0579L107.246 66.4218C107.14 66.5561 107.028 66.6841 106.91 66.8054C106.001 67.7708 104.935 68.546 103.766 69.0922C101.972 69.926 100.069 70.4488 98.126 70.6414C97.2412 70.7545 96.3656 70.7987 95.508 70.8233C94.6505 70.8479 93.793 70.8233 92.9491 70.7742C92.1052 70.725 91.2703 70.6463 90.44 70.5381C89.6097 70.4299 88.8021 70.2873 87.9219 70.0955L88.0671 64.9563C90.9641 64.4072 93.8278 63.6681 96.6423 62.7432C97.2683 62.5226 97.8832 62.2666 98.4844 61.9761C98.9963 61.7419 99.4857 61.4537 99.9454 61.1154C100.213 60.9409 100.439 60.7019 100.608 60.4171L100.739 60.1909C100.8 60.0943 100.856 59.9941 100.907 59.8909C100.972 59.778 101.031 59.6614 101.084 59.5417C101.143 59.4138 101.207 59.2958 101.266 59.1532C101.799 57.8918 102.237 56.586 102.577 55.2484C102.949 53.8025 103.298 52.2977 103.58 50.7387C103.861 49.1797 104.133 47.606 104.383 46.0175L104.728 43.6274L105.041 41.3013L114.542 42.3389Z" fill="black"/>
<path d="M87.7484 48.8749C89.9981 59.3885 91.2644 70.1211 91.5279 80.91H118.093C118.238 77.3544 117.685 57.3042 115.012 42.821C114.533 40.1709 113.088 37.8421 111.005 36.3612C108.921 34.8803 106.375 34.3724 103.942 34.9524L103.815 34.9868C100.498 35.8032 95.7384 37.1212 92.9253 38.2769L92.8119 38.326C88.9203 39.9661 86.7539 44.4794 87.7484 48.8749Z" fill="#093CAF"/>
<path opacity="0.2" d="M89.4766 58.0715C89.6853 59.4534 89.8985 60.919 90.0936 62.4533C92.2669 59.9944 92.9566 52.4602 92.9566 52.4602L89.4766 58.0715Z" fill="black"/>
<path d="M67.4092 65.4628L61.3793 64.853L61.1797 70.3266C63.2109 70.9344 65.3854 70.2693 66.8239 68.6005L67.4092 65.4628Z" fill="#FF8B7B"/>
<path d="M58.5129 66.4661L56.5801 70.2283L61.1989 70.3266L61.3986 64.853L58.5129 66.4661V66.4661Z" fill="#FF8B7B"/>
<path d="M97.7169 46.3522C97.2994 47.2128 96.9274 47.9751 96.51 48.762C96.0926 49.5488 95.6933 50.316 95.2622 51.0783C94.4093 52.6127 93.5245 54.1176 92.5898 55.6077C90.7133 58.6592 88.6343 61.5586 86.3694 64.2828C85.1564 65.7494 83.838 67.1094 82.4266 68.3499C82.2496 68.5122 82.0409 68.6696 81.8458 68.8417C81.6507 69.0138 81.4783 69.1515 81.1879 69.3335C80.8975 69.5155 80.6525 69.6974 80.3894 69.8548C80.1262 70.0122 79.854 70.1548 79.5863 70.2826C78.5855 70.7536 77.5381 71.0985 76.4647 71.3105C74.5873 71.6535 72.6739 71.6999 70.7842 71.4482C69.8991 71.3382 69.0205 71.174 68.1526 70.9564C67.7201 70.8482 67.2936 70.7252 66.8731 70.5875C66.4194 70.4498 66.0519 70.2974 65.5664 70.0958L66.315 65.0205C69.1644 64.6025 72.2451 64.0664 74.3685 63.0238C74.8399 62.8139 75.2838 62.5378 75.6889 62.2026C75.852 62.0809 76.0039 61.9426 76.1426 61.7895C76.1743 61.7452 76.315 61.6124 76.4193 61.5042C76.5237 61.396 76.6462 61.2927 76.7596 61.1649C77.7308 60.1218 78.6401 59.013 79.4819 57.8453C81.3086 55.291 83.0152 52.6386 84.5953 49.898C85.412 48.5062 86.206 47.0899 87 45.6686L88.1706 43.5343L89.3004 41.4343L97.7169 46.3522Z" fill="#093CAF"/>
<path d="M90.4266 149.003H85.4629L82.9629 136.536H87.9311L90.4266 149.003V149.003Z" fill="#FF8B7B"/>
<path d="M85.1869 147.852H90.7676C90.9667 147.86 91.1379 148.008 91.1896 148.216L92.1696 153.006C92.217 153.242 92.162 153.488 92.0203 153.674C91.8787 153.86 91.6662 153.966 91.4437 153.96C89.4972 153.926 88.549 153.803 86.0943 153.803C84.5835 153.803 82.6461 153.97 80.5635 153.97C78.4809 153.97 78.2042 151.737 79.0572 151.536C82.8866 150.626 83.1406 149.377 84.3793 148.182C84.6014 147.967 84.8893 147.85 85.1869 147.852Z" fill="#263238"/>
<g opacity="0.2">
<path d="M87.9356 136.541H82.9629L84.3513 143.446L89.2242 142.969L87.9356 136.541V136.541Z" fill="black"/>
</g>
<path d="M96.6352 18.3348C98.4501 23.3117 99.7114 26.1296 98.5136 29.7443C96.6987 35.1785 90.2605 35.7293 87.1298 31.4311C84.3168 27.5607 81.8576 20.0708 85.4102 15.9545C86.9921 14.099 89.3481 13.2646 91.6355 13.7497C93.9229 14.2347 95.8151 15.97 96.6352 18.3348V18.3348Z" fill="#FF8B7B"/>
<path d="M87.9164 25.7905C87.1723 26.8724 86.6006 27.6937 86.6006 27.6937C86.6006 27.6937 85.0716 23.5774 85.6569 21.6889C84.9128 20.0906 83.411 22.4463 82.8438 19.3333C82.2767 16.2203 84.7313 12.8761 85.6569 12.1827C85.7523 12.5454 85.7951 12.922 85.7839 13.299C88.285 11.0991 91.4637 10.0109 94.6768 10.2549C94.4082 10.6878 94.2373 11.183 94.1777 11.7007C94.1777 11.7007 99.5633 12.6843 100.788 15.9891C100.355 15.765 99.8979 15.5998 99.4272 15.4973C100.415 17.0316 100.806 18.9252 100.516 20.7693C100.125 23.4587 99.9222 26.1761 99.9082 28.8986C99.9581 30.2952 96.4236 32.9657 94.2684 30.1133C92.1133 27.2609 87.9164 25.7905 87.9164 25.7905Z" fill="#263238"/>
<path d="M90.1608 24.7182C90.4419 25.8774 90.3622 27.1048 89.934 28.2099C89.3578 29.6852 88.1736 29.3311 87.5883 28.0427C87.0574 26.887 86.7171 24.7428 87.6563 23.7149C88.5955 22.6871 89.8069 23.3264 90.1608 24.7182Z" fill="#FF8B7B"/>
<path d="M99.4904 80.8906C99.4904 80.8906 76.4234 89.9592 75.7473 101.954C74.4951 124.05 82.8299 141.543 82.8299 141.543L90.4705 140.658C90.4705 140.658 89.1093 133.546 88.0975 113.531C86.8226 88.3756 126.21 114.121 118.097 80.8906H99.4904Z" fill="#093CAF"/>
<path opacity="0.5" d="M99.4904 80.8906C99.4904 80.8906 76.4234 89.9592 75.7473 101.954C74.4951 124.05 82.8299 141.543 82.8299 141.543L90.4705 140.658C90.4705 140.658 89.1093 133.546 88.0975 113.531C86.8226 88.3756 126.21 114.121 118.097 80.8906H99.4904Z" fill="white"/>
<path d="M80.7137 138.494C80.6774 138.494 81.9296 142.172 81.9296 142.172L91.4577 141.159L90.9813 137.815L80.7137 138.494Z" fill="#093CAF"/>
<path d="M68.967 149.618H63.9988L62.5469 137.146H67.5151L68.967 149.618V149.618Z" fill="#FF8B7B"/>
<path d="M63.9649 147.847H69.4095C69.612 147.845 69.7884 147.997 69.8315 148.211L70.8206 152.996C70.8791 153.234 70.8312 153.488 70.6911 153.681C70.551 153.875 70.3351 153.985 70.1082 153.98C68.1527 153.946 65.3215 153.828 62.8487 153.833C59.9722 153.833 59.4232 154.005 56.043 154.01C54.0012 154.01 53.4341 151.782 54.2871 151.551C58.1709 150.626 59.4141 150.523 62.7671 148.275C63.121 148.013 63.5363 147.864 63.9649 147.847Z" fill="#263238"/>
<path opacity="0.2" d="M62.5547 137.151L63.3442 143.943L68.2715 143.579L67.5229 137.151H62.5547V137.151Z" fill="black"/>
<path d="M91.5303 80.8906C91.5303 80.8906 53.7356 84.5249 54.1439 105.101C54.5659 126.504 61.9433 140.938 61.9433 140.938H69.3208C69.3208 140.938 67.9233 129.833 68.1729 108.765C68.2455 102.456 80.0149 100.37 91.503 99.6327C101.43 98.9934 110.723 92.8608 114.579 82.9119L115.373 80.8906H91.5303Z" fill="#093CAF"/>
<path opacity="0.5" d="M91.5303 80.8906C91.5303 80.8906 53.7356 84.5249 54.1439 105.101C54.5659 126.504 61.9433 140.938 61.9433 140.938H69.3208C69.3208 140.938 67.9233 129.833 68.1729 108.765C68.2455 102.456 80.0149 100.37 91.503 99.6327C101.43 98.9934 110.723 92.8608 114.579 82.9119L115.373 80.8906H91.5303Z" fill="white"/>
<path d="M60.2096 138.789C60.1778 138.789 61.4754 142.487 61.4754 142.487L70.3865 141.793L69.8647 138.449L60.2096 138.789Z" fill="#093CAF"/>
<path d="M101.45 57.7664L96.6546 77.7969C95.4284 82.9286 94.8094 88.2085 94.8125 93.5096V102.819C94.8125 105.17 96.4096 107.078 98.3833 107.078H122.966C124.939 107.078 126.536 105.17 126.536 102.819V93.5096C126.535 88.2083 127.155 82.9284 128.383 77.7969L132.616 60.0925C133.27 57.3729 131.555 54.6829 129.182 54.6829H104.881C103.221 54.7395 101.809 56.0092 101.45 57.7664Z" fill="#263238"/>
<path d="M70.8732 97.38L71.6763 102.347C72.1028 104.958 74.2216 107.078 76.4131 107.078H103.741C105.932 107.078 107.37 104.958 106.944 102.347L106.141 97.38C105.655 94.4046 103.246 91.9949 100.751 91.9949H74.5347C72.0211 91.9949 70.3923 94.4046 70.8732 97.38Z" fill="#263238"/>
<path d="M106.372 112.065H92.0576L90.6602 107.078H107.77L106.372 112.065V112.065Z" fill="#093CAF"/>
<rect x="96.6602" y="112.065" width="5.1134" height="37.0858" fill="#093CAF"/>
<path opacity="0.7" d="M101.774 149.151H96.6602V112.955L101.774 113.521V149.151V149.151Z" fill="white"/>
<path opacity="0.7" d="M100.523 149.151H99.3027V113.245L100.523 113.383V149.151V149.151Z" fill="white"/>
<path d="M110.975 154.885H87.4541C87.1728 154.882 86.9248 154.685 86.8383 154.394C86.7519 154.104 86.8464 153.787 87.0729 153.606L90.8025 150.656C92.5955 149.232 94.7597 148.464 96.9821 148.462H101.451C103.672 148.465 105.835 149.233 107.626 150.656L111.36 153.606C111.588 153.787 111.682 154.106 111.594 154.397C111.507 154.687 111.257 154.884 110.975 154.885V154.885Z" fill="#093CAF"/>
</svg>
