<svg width="39" height="19" viewBox="0 0 39 19" fill="none" xmlns="http://www.w3.org/2000/svg">
<path d="M38.5532 8.36694C38.5527 8.36648 38.5523 8.36595 38.5518 8.36549L30.5915 0.44362C29.9952 -0.149835 29.0306 -0.147627 28.437 0.448799C27.8435 1.04515 27.8458 2.00971 28.4421 2.60324L33.7866 7.92187L1.52344 7.92187C0.682043 7.92187 0 8.60391 0 9.44531C0 10.2867 0.682043 10.9687 1.52344 10.9687L33.7866 10.9687L28.4422 16.2874C27.8458 16.8809 27.8436 17.8455 28.4371 18.4418C29.0307 19.0383 29.9953 19.0404 30.5916 18.447L38.5519 10.5251C38.5523 10.5247 38.5527 10.5241 38.5533 10.5237C39.1499 9.92816 39.148 8.96047 38.5532 8.36694Z" fill="url(#paint0_linear_933_2362)"/>
<defs>
<linearGradient id="paint0_linear_933_2362" x1="39" y1="0" x2="24.1774" y2="30.6015" gradientUnits="userSpaceOnUse">
<stop stop-color="#6AC4FF"/>
<stop offset="1" stop-color="#57007B"/>
</linearGradient>
</defs>
</svg>
