<svg width="1545" height="421" viewBox="0 0 1545 421" fill="none" xmlns="http://www.w3.org/2000/svg">
<path d="M424.252 309V81.192H462.003V274.503H565.167V309H424.252ZM664.841 312.905C648.569 312.905 634.033 309.325 621.232 302.166C608.648 294.789 598.777 284.7 591.617 271.9C584.457 259.099 580.877 244.346 580.877 227.64C580.877 210.934 584.349 196.181 591.291 183.38C598.451 170.58 608.323 160.599 620.907 153.44C633.49 146.063 647.918 142.375 664.19 142.375C680.462 142.375 694.89 146.063 707.474 153.44C720.057 160.599 729.82 170.58 736.763 183.38C743.923 196.181 747.503 210.934 747.503 227.64C747.503 244.346 744.031 259.099 737.089 271.9C730.146 284.7 720.383 294.789 707.799 302.166C695.215 309.325 680.896 312.905 664.841 312.905ZM664.841 279.385C673.736 279.385 681.655 277.215 688.598 272.876C695.541 268.32 700.965 262.245 704.87 254.652C708.775 246.841 710.728 237.837 710.728 227.64C710.728 217.443 708.667 208.548 704.545 200.954C700.639 193.143 695.215 187.068 688.273 182.729C681.33 178.173 673.302 175.895 664.19 175.895C655.078 175.895 647.05 178.065 640.107 182.404C633.165 186.743 627.741 192.818 623.835 200.628C619.93 208.439 617.978 217.443 617.978 227.64C617.978 237.837 619.93 246.841 623.835 254.652C627.958 262.245 633.49 268.32 640.433 272.876C647.593 277.215 655.729 279.385 664.841 279.385ZM795.36 309V129.032C795.36 111.892 799.591 98.7657 808.052 89.6534C816.731 80.3242 829.748 75.6595 847.105 75.6595C852.746 75.6595 858.712 76.6358 865.004 78.5885C871.513 80.3241 877.696 82.7107 883.554 85.7481L870.211 112.76C866.089 110.807 862.401 109.397 859.146 108.529C856.109 107.661 853.397 107.227 851.01 107.227C844.502 107.227 839.62 109.397 836.366 113.736C833.328 117.858 831.809 124.692 831.809 134.239V309H795.36ZM767.372 176.22V146.28H874.442V176.22H767.372ZM928.071 222.433C928.071 204.859 931.434 190.431 938.16 179.149C944.885 167.868 953.564 159.515 964.195 154.091C975.043 148.45 986.325 145.629 998.041 145.629V180.451C988.06 180.451 978.623 181.861 969.727 184.682C961.049 187.285 953.998 191.625 948.574 197.7C943.15 203.774 940.438 211.802 940.438 221.782L928.071 222.433ZM903.988 309V146.28H940.438V309H903.988ZM1024.49 309V146.28H1060.62V309H1024.49ZM1042.72 115.363C1036.86 115.363 1031.76 113.302 1027.42 109.18C1023.3 104.841 1021.24 99.7421 1021.24 93.8842C1021.24 88.0262 1023.3 83.0362 1027.42 78.9139C1031.76 74.7917 1036.86 72.7306 1042.72 72.7306C1048.58 72.7306 1053.57 74.7917 1057.69 78.9139C1062.03 83.0362 1064.2 88.0262 1064.2 93.8842C1064.2 99.7421 1062.03 104.841 1057.69 109.18C1053.57 113.302 1048.58 115.363 1042.72 115.363Z" fill="#1A1A1A"/>
<path d="M1085.04 177.01V145.77H1192.12V177.01H1085.04ZM1164.78 312.39C1147.64 312.39 1134.57 308.107 1125.56 299.54C1116.55 290.973 1112.05 278.66 1112.06 262.6V95H1148.18V255.77C1148.18 263.357 1149.97 269.103 1153.55 273.01C1157.13 276.917 1162.39 278.87 1169.34 278.87C1171.78 278.822 1174.2 278.384 1176.5 277.57C1179.66 276.404 1182.62 274.758 1185.28 272.69L1198.62 300.35C1193.39 304.045 1187.7 307.053 1181.7 309.3C1176.3 311.315 1170.58 312.361 1164.82 312.39H1164.78Z" fill="url(#paint0_linear_6_114)"/>
<path d="M1298.58 312.39C1282.74 312.39 1268.69 308.757 1256.43 301.49C1244.2 294.282 1234.18 283.875 1227.43 271.39C1220.37 258.59 1216.84 243.837 1216.85 227.13C1216.86 210.423 1220.44 195.67 1227.59 182.87C1234.48 170.343 1244.67 159.935 1257.04 152.77C1269.52 145.51 1283.79 141.877 1299.84 141.87C1313.78 141.698 1327.46 145.601 1339.21 153.1C1350.93 160.58 1360.21 171.373 1367.04 185.48C1373.87 199.587 1377.29 216.4 1377.29 235.92H1249.39L1254.28 231.37C1254.28 241.37 1256.45 249.993 1260.78 257.24C1264.9 264.289 1270.87 270.081 1278.04 273.99C1285.33 277.932 1293.51 279.949 1301.8 279.85C1311.8 279.85 1320.04 277.627 1326.53 273.18C1333.01 268.756 1338.28 262.768 1341.83 255.77L1374.04 269.43C1369.59 277.969 1363.7 285.676 1356.63 292.21C1349.37 298.85 1340.85 303.952 1331.57 307.21C1321.94 310.657 1310.94 312.383 1298.58 312.39ZM1256.58 212.48L1251.38 207.92H1343.15L1338.27 212.48C1338.27 203.587 1336.32 196.253 1332.41 190.48C1328.71 184.914 1323.6 180.428 1317.6 177.48C1311.79 174.585 1305.38 173.079 1298.89 173.08C1292.14 173.135 1285.48 174.635 1279.36 177.48C1272.92 180.353 1267.31 184.829 1263.09 190.48C1258.76 196.253 1256.59 203.587 1256.59 212.48H1256.58Z" fill="url(#paint1_linear_6_114)"/>
<path d="M1384.17 308.49L1450.89 215.41L1497.42 145.77H1540.42L1476.96 235.59L1427.82 308.49H1384.17ZM1501 308.49L1452.84 235.59L1388.4 145.77H1431.4L1478.26 215.41L1544.33 308.49H1501Z" fill="url(#paint2_linear_6_114)"/>
<path d="M110.38 211.99C104.99 188.92 115.61 174.78 129.29 162.5C148.6 145.17 172.53 137.01 197.14 130.74C212.9 126.74 228.95 123.74 244.58 119.35C280.58 109.1 311.69 90.75 336.41 60.94C338.64 74.94 340.49 88.43 332.2 101.24C314.32 128.86 289.05 147.55 257.69 154.9C206.38 166.93 156.09 180.72 110.38 211.99Z" fill="url(#paint3_linear_6_114)"/>
<path d="M219.67 225.13C221.67 236.64 220.44 246.83 212.52 256.7C190.06 284.7 160.52 300.5 126.28 308.03C89.6701 316.08 54.8801 327.57 27.0501 354.1C19.2401 361.55 12.1401 369.72 4.49005 377.86C-3.95994 355.86 3.59005 330.72 23.6901 311.76C45.4101 291.28 71.7501 280.26 100.56 274.6C142.84 266.29 183.46 254.29 216.87 225.18C217.31 224.8 218.36 225.13 219.67 225.13Z" fill="url(#paint4_linear_6_114)"/>
<path d="M5.61009 320.93C0.610085 309.2 1.86009 300.82 10.3801 293.93C29.9501 278.16 48.3101 260.54 69.2601 246.93C110.11 220.37 151.68 194.65 198.19 178.55C202.79 176.96 207.53 175.79 212.25 174.55C214.724 174.103 217.221 173.796 219.73 173.63C221 187.85 224.47 200.83 213.38 213.58C191.67 238.58 162.58 249.22 132.46 258.27C120.46 261.89 108 264.27 95.7001 266.99C60.1701 274.81 29.0401 290.12 5.61009 320.93Z" fill="url(#paint5_linear_6_114)"/>
<path d="M336.85 10.72C340.3 25.26 339.46 37.51 331.76 49.1C308.09 84.72 273.26 103.28 233.19 113.81C224.55 116.08 215.69 117.53 206.97 119.53C172.7 127.37 139.58 137.72 114.04 164.87C109.04 155.12 112.27 148.82 119.27 144.14C148.64 124.53 177.64 104.31 207.72 85.85C246.51 62.06 286.2 39.73 325.53 16.85C328.89 14.83 332.39 13.1 336.85 10.72Z" fill="url(#paint6_linear_6_114)"/>
<path d="M219.04 266.06C222.04 275.4 220.6 282.25 213.15 289.06C183.15 316.53 148.47 336.78 113.28 356.52C80.04 375.23 47.23 394.95 14.23 414.22C10.83 416.22 7.41 418.17 4 420.15L0 418.3C3.32 408.03 4.75 396.58 10.29 387.7C32.74 351.7 65.84 329.96 107.23 321.52C137.37 315.37 166.78 307.67 192 289.18C201.4 282.31 209.77 274.08 219.04 266.06Z" fill="url(#paint7_linear_6_114)"/>
<path d="M336.56 115.78C338.56 123.18 338.84 130.19 331.45 137.49C302.57 166.05 269.85 188.85 230.82 207.73C230.82 195.79 230.26 185.51 231.25 175.38C231.47 173.05 236.76 170.59 240.14 169.27C258.61 162.08 278.14 157.06 295.46 147.71C310.43 139.6 322.81 126.72 336.56 115.78Z" fill="url(#paint8_linear_6_114)"/>
<defs>
<linearGradient id="paint0_linear_6_114" x1="1314.69" y1="312.39" x2="1314.69" y2="95" gradientUnits="userSpaceOnUse">
<stop stop-color="#1B00FF"/>
<stop offset="1" stop-color="#00AFFF"/>
</linearGradient>
<linearGradient id="paint1_linear_6_114" x1="1314.69" y1="312.39" x2="1314.69" y2="95" gradientUnits="userSpaceOnUse">
<stop stop-color="#1B00FF"/>
<stop offset="1" stop-color="#00AFFF"/>
</linearGradient>
<linearGradient id="paint2_linear_6_114" x1="1314.69" y1="312.39" x2="1314.69" y2="95" gradientUnits="userSpaceOnUse">
<stop stop-color="#1B00FF"/>
<stop offset="1" stop-color="#00AFFF"/>
</linearGradient>
<linearGradient id="paint3_linear_6_114" x1="108.95" y1="136.46" x2="338.3" y2="136.46" gradientUnits="userSpaceOnUse">
<stop stop-color="#1B00FF"/>
<stop offset="1" stop-color="#00AFFF"/>
</linearGradient>
<linearGradient id="paint4_linear_6_114" x1="1.07005" y1="301.43" x2="220.52" y2="301.43" gradientUnits="userSpaceOnUse">
<stop stop-color="#1B00FF"/>
<stop offset="1" stop-color="#00AFFF"/>
</linearGradient>
<linearGradient id="paint5_linear_6_114" x1="2.67009" y1="247.31" x2="221.26" y2="247.31" gradientUnits="userSpaceOnUse">
<stop stop-color="#1B00FF"/>
<stop offset="1" stop-color="#00AFFF"/>
</linearGradient>
<linearGradient id="paint6_linear_6_114" x1="111.58" y1="87.8" x2="338.79" y2="87.8" gradientUnits="userSpaceOnUse">
<stop stop-color="#1B00FF"/>
<stop offset="1" stop-color="#00AFFF"/>
</linearGradient>
<linearGradient id="paint7_linear_6_114" x1="0.04" y1="343.11" x2="220.54" y2="343.11" gradientUnits="userSpaceOnUse">
<stop stop-color="#1B00FF"/>
<stop offset="1" stop-color="#00AFFF"/>
</linearGradient>
<linearGradient id="paint8_linear_6_114" x1="284.22" y1="207.73" x2="284.22" y2="115.78" gradientUnits="userSpaceOnUse">
<stop stop-color="#1B00FF"/>
<stop offset="1" stop-color="#00AFFF"/>
</linearGradient>
</defs>
</svg>
