<svg width="145" height="135" viewBox="0 0 145 135" fill="none" xmlns="http://www.w3.org/2000/svg">
<rect x="0.728516" y="61.8015" width="144.01" height="5.1776" fill="#001970"/>
<rect opacity="0.3" x="0.728516" y="61.8015" width="38.5426" height="5.1776" fill="white"/>
<path d="M39.888 66.979H36.5352L38.29 131.871H39.888H41.486L43.245 66.979H39.888V66.979Z" fill="#001970"/>
<path opacity="0.3" d="M38.2896 131.871H39.8876V68.3723L36.5898 68.9754L38.2896 131.871V131.871Z" fill="white"/>
<path d="M8.10673 66.979H4.75391L6.50873 131.871H8.10673H9.70472L11.4595 66.979H8.10673V66.979Z" fill="#001970"/>
<path opacity="0.3" d="M6.50865 131.871H8.10664V68.3723L4.80469 68.9754L6.50865 131.871V131.871Z" fill="white"/>
<path d="M137.361 66.979H134.008L135.763 131.871H137.361H138.959L140.718 66.979H137.361V66.979Z" fill="#001970"/>
<path opacity="0.3" d="M135.76 131.871H137.358V68.3723L134.061 68.9754L135.76 131.871V131.871Z" fill="white"/>
<path d="M105.579 66.979H102.227L103.981 131.871H105.579H107.177L108.932 66.979H105.579V66.979Z" fill="#001970"/>
<path opacity="0.3" d="M103.985 131.871H105.583V68.3723L102.285 68.9754L103.985 131.871V131.871Z" fill="white"/>
<path d="M69.0851 34.0829H34.8448C34.2811 34.0606 33.7409 34.3098 33.3913 34.7534C33.0417 35.1969 32.9249 35.7813 33.0772 36.3256L37.6381 58.1361C37.9397 59.4035 39.0433 60.317 40.3424 60.3745H74.6081C75.1708 60.3964 75.71 60.1477 76.0594 59.7053C76.4088 59.2628 76.5263 58.6797 76.3757 58.1361L71.8106 36.3256C71.5085 35.0491 70.3934 34.1315 69.0851 34.0829V34.0829Z" fill="#263238"/>
<path d="M40.6415 59.1298C39.7654 59.0706 39.0265 58.4536 38.8104 57.6008L34.2495 35.7903C34.1705 35.4979 34.2282 35.1854 34.4064 34.9408C34.5912 34.7313 34.8609 34.6173 35.1397 34.6307H69.4054C70.2815 34.69 71.0203 35.3069 71.2365 36.1598L75.7974 57.9703C75.8764 58.2626 75.8187 58.5751 75.6405 58.8198C75.4568 59.0308 75.1863 59.1452 74.9072 59.1298H40.6415Z" fill="white"/>
<path opacity="0.4" d="M66.4902 57.3843L62.1667 36.7036C62.1175 36.4557 62.181 36.1988 62.3399 36.0025C62.4989 35.8063 62.7368 35.6912 62.989 35.6885H68.5502C68.9473 35.6915 69.2891 35.9705 69.3725 36.3596L73.696 57.0233C73.7452 57.2711 73.6817 57.5281 73.5227 57.7243C73.3638 57.9206 73.1259 58.0357 72.8737 58.0384H67.3125C66.9204 58.0371 66.5803 57.7666 66.4902 57.3843V57.3843Z" fill="#001970"/>
<path d="M37.1006 37.4978L36.9141 36.6016H43.7808L43.9673 37.4978H37.1006V37.4978Z" fill="#001970"/>
<path d="M40.2705 39.7234L40.084 38.8271H52.1177L52.3084 39.7234H40.2705V39.7234Z" fill="#EBEBEB"/>
<path d="M40.9056 41.9448L40.7148 41.0486H54.2067L54.3932 41.9448H40.9056V41.9448Z" fill="#EBEBEB"/>
<path d="M41.54 44.1704L41.3535 43.2742H52.2131L52.4038 44.1704H41.54V44.1704Z" fill="#EBEBEB"/>
<path d="M39.1888 47.7766L38.998 46.8804H43.3427L43.5292 47.7766H39.1888V47.7766Z" fill="#001970"/>
<path d="M42.3564 49.998L42.1699 49.1018H47.4598L47.6506 49.998H42.3564V49.998Z" fill="#EBEBEB"/>
<path d="M48.9193 49.998L48.7285 49.1018H54.0227L54.2092 49.998H48.9193V49.998Z" fill="#EBEBEB"/>
<path d="M42.9931 52.2236L42.8066 51.3274H60.694L60.8805 52.2236H42.9931V52.2236Z" fill="#EBEBEB"/>
<path d="M43.624 54.445L43.4375 53.5488H57.0777L57.2642 54.445H43.624V54.445Z" fill="#EBEBEB"/>
<path d="M85.0808 60.2427H39.9979C38.7687 60.2427 37.9718 60.9435 38.2304 61.8015H87.7851C87.5308 60.9435 86.31 60.2427 85.0808 60.2427Z" fill="#263238"/>
<path opacity="0.1" d="M25.185 28.5697L20.8573 7.90175C20.8095 7.65451 20.8737 7.39878 21.0324 7.20358C21.1912 7.00837 21.4283 6.89383 21.6796 6.89087H56.6913C57.0872 6.89349 57.4285 7.17031 57.5136 7.55771L61.8413 28.2087C61.8905 28.4565 61.827 28.7135 61.6681 28.9097C61.5091 29.106 61.2712 29.2211 61.019 29.2238H26.0073C25.6152 29.2225 25.2752 28.952 25.185 28.5697Z" fill="#001970"/>
<path d="M37.6305 7.57039H30.2805L30.1152 6.77612H37.4652L37.6305 7.57039V7.57039Z" fill="#001970"/>
<path opacity="0.4" d="M36.4358 8.83626H33.4856L33.3203 8.04199H36.2705L36.4358 8.83626V8.83626Z" fill="#001970"/>
<path opacity="0.4" d="M41.344 8.83626H36.8001L36.6348 8.04199H41.1787L41.344 8.83626V8.83626Z" fill="#001970"/>
<path opacity="0.4" d="M43.3245 10.0977H33.7493L33.584 9.30347H43.1635L43.3245 10.0977V10.0977Z" fill="#001970"/>
<path opacity="0.4" d="M42.1089 11.3634H34.013L33.8477 10.5691H41.9436L42.1089 11.3634V11.3634Z" fill="#001970"/>
<path opacity="0.4" d="M47.4785 24.7896H42.3242L42.4895 25.5796H47.6438L47.4785 24.7896V24.7896Z" fill="#001970"/>
<path d="M41.0504 23.0565H33.5012L33.3359 22.2622H40.8851L41.0504 23.0565V23.0565Z" fill="#001970"/>
<path opacity="0.4" d="M44.0877 26.051H37.0684L37.2337 26.8453H44.253L44.0877 26.051V26.051Z" fill="#001970"/>
<path opacity="0.4" d="M41.959 24.7896H36.8047L36.97 25.5796H42.1243L41.959 24.7896V24.7896Z" fill="#001970"/>
<path opacity="0.4" d="M46.8515 23.5237H36.543L36.7083 24.3179H47.0168L46.8515 23.5237V23.5237Z" fill="#001970"/>
<path d="M37.3703 1.67503H29.054L28.8887 0.88501H37.205L37.3703 1.67503V1.67503Z" fill="#001970"/>
<path opacity="0.4" d="M41.4812 4.67383H32.3086L32.4739 5.4681H41.6422L41.4812 4.67383V4.67383Z" fill="#001970"/>
<path opacity="0.4" d="M39.6449 3.41211H32.0449L32.2102 4.20213H39.8102L39.6449 3.41211V3.41211Z" fill="#001970"/>
<path opacity="0.4" d="M40.1485 2.14648H31.7812L31.9466 2.94075H40.3138L40.1485 2.14648V2.14648Z" fill="#001970"/>
<path d="M37.2809 13.4193H31.4993L31.334 12.625H37.1156L37.2809 13.4193V13.4193Z" fill="#001970"/>
<path opacity="0.4" d="M46.3567 16.4136H35.0605L35.2259 17.2078H46.5178L46.3567 16.4136V16.4136Z" fill="#001970"/>
<path opacity="0.4" d="M39.4784 15.1521H34.7988L34.9641 15.9464H39.6437L39.4784 15.1521V15.1521Z" fill="#001970"/>
<path opacity="0.4" d="M44.5565 15.1521H39.877L40.0423 15.9464H44.7218L44.5565 15.1521V15.1521Z" fill="#001970"/>
<path opacity="0.4" d="M44.8437 13.8865H34.5352L34.7005 14.6807H45.0048L44.8437 13.8865V13.8865Z" fill="#001970"/>
<path opacity="0.4" d="M44.823 20.2065H35.8496L36.0149 20.9966H44.9883L44.823 20.2065V20.2065Z" fill="#001970"/>
<path opacity="0.4" d="M38.1989 18.9409H35.5879L35.7532 19.7352H38.36L38.1989 18.9409V18.9409Z" fill="#001970"/>
<path opacity="0.4" d="M42.2786 18.9409H38.5527L38.718 19.7352H42.4439L42.2786 18.9409V18.9409Z" fill="#001970"/>
<path opacity="0.4" d="M45.6328 17.6792H35.3242L35.4895 18.4692H45.7981L45.6328 17.6792V17.6792Z" fill="#001970"/>
<path opacity="0.4" d="M53.7498 17.4669H50.0579L49.8926 16.6726H53.5887L53.7498 17.4669V17.4669Z" fill="#001970"/>
<path opacity="0.4" d="M59.8947 17.4669H54.2063L54.041 16.6726H59.7294L59.8947 17.4669V17.4669Z" fill="#001970"/>
<path opacity="0.4" d="M62.3109 18.7327H50.3196L50.1543 17.9385H62.1456L62.3109 18.7327V18.7327Z" fill="#001970"/>
<path opacity="0.4" d="M60.718 19.9942H50.5833L50.418 19.2H60.5527L60.718 19.9942V19.9942Z" fill="#001970"/>
<path opacity="0.4" d="M65.2581 12.4421H53.7754L53.9407 13.2322H65.4234L65.2581 12.4421V12.4421Z" fill="#001970"/>
<path opacity="0.4" d="M63.0276 11.1765H53.5117L53.677 11.9708H63.1887L63.0276 11.1765V11.1765Z" fill="#001970"/>
<path d="M61.3101 9.91504H50.832L50.9973 10.7051H61.4754L61.3101 9.91504V9.91504Z" fill="#001970"/>
<path opacity="0.4" d="M65.7771 25.0486H51.6367L51.802 25.8429H65.9424L65.7771 25.0486V25.0486Z" fill="#001970"/>
<path opacity="0.4" d="M57.2309 23.7871H51.373L51.5384 24.5771H57.3963L57.2309 23.7871V23.7871Z" fill="#001970"/>
<path opacity="0.4" d="M63.5884 23.7871H57.7305L57.8958 24.5771H63.7537L63.5884 23.7871V23.7871Z" fill="#001970"/>
<path opacity="0.4" d="M64.012 22.5215H51.1094L51.2747 23.3158H64.1773L64.012 22.5215V22.5215Z" fill="#001970"/>
<path opacity="0.4" d="M63.6584 28.8374H52.4258L52.5911 29.6317H63.8237L63.6584 28.8374V28.8374Z" fill="#001970"/>
<path opacity="0.4" d="M55.4302 27.5757H52.1621L52.3274 28.37H55.5955L55.4302 27.5757V27.5757Z" fill="#001970"/>
<path opacity="0.4" d="M60.5415 27.5757H55.8789L56.0442 28.37H60.7068L60.5415 27.5757V27.5757Z" fill="#001970"/>
<path opacity="0.4" d="M64.8053 26.3101H51.8984L52.0637 27.1043H64.9664L64.8053 26.3101V26.3101Z" fill="#001970"/>
<path opacity="0.4" d="M30.4376 29.8184H21.6465L21.8118 30.6126H30.6029L30.4376 29.8184V29.8184Z" fill="#001970"/>
<path opacity="0.4" d="M27.8384 28.5569H21.3828L21.5481 29.3469H27.9994L27.8384 28.5569V28.5569Z" fill="#001970"/>
<path opacity="0.4" d="M34.7443 28.5569H28.293L28.4583 29.3469H34.9138L34.7443 28.5569V28.5569Z" fill="#001970"/>
<path opacity="0.4" d="M34.028 27.2913H21.1211L21.2864 28.0855H34.189L34.028 27.2913V27.2913Z" fill="#001970"/>
<path d="M132.739 53.5488H127.297L127.933 61.8016H132.104L132.739 53.5488V53.5488Z" fill="#001970"/>
<path opacity="0.4" d="M132.739 53.5488H127.297L127.933 61.8016H132.104L132.739 53.5488V53.5488Z" fill="white"/>
<path d="M14.1294 47.8191H21.954L19.2836 61.8016H11.459L14.1294 47.8191V47.8191Z" fill="#263238"/>
<path d="M24.0952 44.0728H13.0449L16.1392 61.8015H27.1895L24.0952 44.0728V44.0728Z" fill="#001970"/>
<path d="M12.3926 44.0728H13.0453L16.1396 61.8015H15.4868L12.3926 44.0728V44.0728Z" fill="#001970"/>
<path opacity="0.3" d="M12.3926 44.0728H13.0453L16.1396 61.8015H15.4868L12.3926 44.0728V44.0728Z" fill="black"/>
<path d="M17.7299 59.9028L15.2969 45.967H22.5112L24.9399 59.9028H17.7299V59.9028Z" fill="white"/>
<path opacity="0.6" d="M24.5967 59.9028L22.168 45.967H22.5113L24.9401 59.9028H24.5967V59.9028Z" fill="#001970"/>
<path d="M79.4114 22.0173C79.5684 22.3583 79.5175 22.7206 79.2926 22.8229C79.0677 22.9251 78.7623 22.7333 78.6053 22.3966C78.4483 22.0599 78.5034 21.6934 78.7241 21.5911C78.9447 21.4888 79.2544 21.6593 79.4114 22.0173Z" fill="#263238"/>
<path d="M79.5457 22.6907C79.5457 22.6907 79.6814 25.0177 79.2656 26.3645C80.1142 26.6501 81.0307 25.9383 81.0307 25.9383L79.5457 22.6907Z" fill="#FF5652"/>
<path d="M79.4521 19.2001C79.416 19.23 79.3715 19.2479 79.3248 19.2512C78.7647 19.2661 78.2456 19.5498 77.9289 20.0141C77.8909 20.0855 77.8173 20.1304 77.7367 20.1313C77.6561 20.1322 77.5815 20.0889 77.542 20.0183C77.5025 19.9478 77.5044 19.8612 77.547 19.7925C77.9371 19.1977 78.5906 18.8305 79.2993 18.808C79.3945 18.8027 79.4823 18.8593 79.517 18.9485C79.5517 19.0376 79.5255 19.1391 79.4521 19.2001Z" fill="#263238"/>
<path d="M91.904 21.4888C93.2151 26.0491 94.6789 29.5866 96.4651 31.6068C96.4651 31.6068 96.4991 35.1912 90.419 36.896C83.7323 38.7713 86.295 34.4581 86.295 34.4581C89.6893 32.5615 89.3668 29.6974 86.8126 28.6064L91.904 21.4888Z" fill="#FF8B7B"/>
<path d="M97.8814 30.7331C97.7626 29.0667 97.6056 27.1658 96.583 27.1147C95.4544 27.0635 88.9204 29.9958 87.5245 32.0629C86.1286 34.13 88.8568 36.1544 88.8568 36.1544L97.8814 30.7331Z" fill="#263238"/>
<path d="M84.5102 56.5398L78.8672 56.3523L78.969 61.1002C78.969 61.1002 83.8907 60.5888 84.1071 59.2888L84.5102 56.5398Z" fill="#FF8B7B"/>
<path d="M75.885 58.6835L75.291 61.1129L78.9696 61.1044L78.8677 56.3564L75.885 58.6835V58.6835Z" fill="#FF8B7B"/>
<path d="M107.158 36.8107L107.04 38.0296C107.001 38.4217 106.951 38.8053 106.9 39.1931C106.802 39.9646 106.679 40.736 106.547 41.5032C106.293 43.0418 105.962 44.5718 105.58 46.1104C105.192 47.6785 104.722 49.2249 104.171 50.7433C103.879 51.5232 103.573 52.3032 103.208 53.0959C102.841 53.9274 102.415 54.7321 101.936 55.5039C101.821 55.7043 101.677 55.9301 101.537 56.1177C101.397 56.3052 101.261 56.5439 101.112 56.7399C100.964 56.936 100.807 57.1661 100.612 57.3665L100.336 57.6818C100.237 57.7982 100.132 57.9092 100.022 58.0143C99.1716 58.8509 98.1748 59.5228 97.0817 59.9961C95.4047 60.7187 93.625 61.1718 91.8078 61.3387C90.9805 61.4367 90.1616 61.4751 89.3597 61.4964C88.5578 61.5177 87.7559 61.4964 86.9667 61.4537C86.1775 61.4111 85.3969 61.3429 84.6204 61.2492C83.844 61.1554 83.0887 61.0318 82.2656 60.8656L82.4014 56.4118C85.1105 55.9359 87.7884 55.2954 90.4204 54.4938C91.0058 54.3027 91.5808 54.0807 92.143 53.829C92.6217 53.6261 93.0793 53.3762 93.5092 53.0831C93.7592 52.9318 93.9712 52.7247 94.1287 52.4779L94.2517 52.2819C94.3087 52.1981 94.3611 52.1113 94.4087 52.0219C94.4692 51.924 94.5244 51.823 94.5742 51.7193C94.6293 51.6084 94.6887 51.5062 94.7439 51.3826C95.2423 50.2894 95.6523 49.1577 95.9701 47.9985C96.318 46.7455 96.6447 45.4413 96.9077 44.0902C97.1708 42.7392 97.4254 41.3753 97.6587 39.9987L97.9812 37.9273L98.2739 35.9114L107.158 36.8107Z" fill="#093CAF"/>
<path opacity="0.2" d="M107.158 36.8107L107.04 38.0296C107.001 38.4217 106.951 38.8053 106.9 39.1931C106.802 39.9646 106.679 40.736 106.547 41.5032C106.293 43.0418 105.962 44.5718 105.58 46.1104C105.192 47.6785 104.722 49.2249 104.171 50.7433C103.879 51.5232 103.573 52.3032 103.208 53.0959C102.841 53.9274 102.415 54.7321 101.936 55.5039C101.821 55.7043 101.677 55.9301 101.537 56.1177C101.397 56.3052 101.261 56.5439 101.112 56.7399C100.964 56.936 100.807 57.1661 100.612 57.3665L100.336 57.6818C100.237 57.7982 100.132 57.9092 100.022 58.0143C99.1716 58.8509 98.1748 59.5228 97.0817 59.9961C95.4047 60.7187 93.625 61.1718 91.8078 61.3387C90.9805 61.4367 90.1616 61.4751 89.3597 61.4964C88.5578 61.5177 87.7559 61.4964 86.9667 61.4537C86.1775 61.4111 85.3969 61.3429 84.6204 61.2492C83.844 61.1554 83.0887 61.0318 82.2656 60.8656L82.4014 56.4118C85.1105 55.9359 87.7884 55.2954 90.4204 54.4938C91.0058 54.3027 91.5808 54.0807 92.143 53.829C92.6217 53.6261 93.0793 53.3762 93.5092 53.0831C93.7592 52.9318 93.9712 52.7247 94.1287 52.4779L94.2517 52.2819C94.3087 52.1981 94.3611 52.1113 94.4087 52.0219C94.4692 51.924 94.5244 51.823 94.5742 51.7193C94.6293 51.6084 94.6887 51.5062 94.7439 51.3826C95.2423 50.2894 95.6523 49.1577 95.9701 47.9985C96.318 46.7455 96.6447 45.4413 96.9077 44.0902C97.1708 42.7392 97.4254 41.3753 97.6587 39.9987L97.9812 37.9273L98.2739 35.9114L107.158 36.8107Z" fill="black"/>
<path d="M82.1039 42.475C84.2077 51.5865 85.3918 60.8878 85.6382 70.2379H110.48C110.616 67.1565 110.098 49.7801 107.599 37.2284C107.151 34.9317 105.8 32.9135 103.852 31.6301C101.903 30.3467 99.5222 29.9066 97.2466 30.4092L97.1278 30.439C94.0263 31.1465 89.5756 32.2887 86.945 33.2903L86.8389 33.3329C83.1998 34.7543 81.1739 38.6657 82.1039 42.475Z" fill="#093CAF"/>
<path opacity="0.2" d="M83.7207 50.445C83.9159 51.6426 84.1153 52.9127 84.2977 54.2425C86.3301 52.1115 86.975 45.582 86.975 45.582L83.7207 50.445Z" fill="black"/>
<path d="M63.0833 56.8508L57.4445 56.3223L57.2578 61.0659C59.1572 61.5926 61.1907 61.0163 62.5359 59.5699L63.0833 56.8508Z" fill="#FF8B7B"/>
<path d="M54.7645 57.7202L52.957 60.9807L57.2763 61.0659L57.4629 56.3223L54.7645 57.7202V57.7202Z" fill="#FF8B7B"/>
<path d="M91.4262 40.2886C91.0359 41.0345 90.688 41.6951 90.2976 42.377C89.9073 43.059 89.5339 43.7238 89.1308 44.3845C88.3332 45.7142 87.5058 47.0184 86.6318 48.3098C84.877 50.9544 82.9329 53.4671 80.8148 55.828C79.6806 57.099 78.4477 58.2776 77.1278 59.3527C76.9623 59.4934 76.7671 59.6298 76.5847 59.7789C76.4023 59.9281 76.241 60.0474 75.9695 60.2051C75.6979 60.3628 75.4688 60.5205 75.2227 60.6569C74.9767 60.7933 74.7221 60.9169 74.4718 61.0277C73.5359 61.4359 72.5564 61.7347 71.5527 61.9185C69.797 62.2158 68.0077 62.256 66.2406 62.0378C65.413 61.9425 64.5914 61.8002 63.7798 61.6116C63.3753 61.5178 62.9764 61.4113 62.5833 61.2919C62.159 61.1726 61.8153 61.0405 61.3613 60.8657L62.0614 56.4673C64.7259 56.1051 67.6068 55.6405 69.5925 54.7369C70.0333 54.555 70.4484 54.3157 70.8271 54.0252C70.9797 53.9198 71.1217 53.7999 71.2514 53.6672C71.2811 53.6288 71.4127 53.5137 71.5102 53.42C71.6078 53.3262 71.7224 53.2367 71.8285 53.1259C72.7366 52.2219 73.5869 51.261 74.3742 50.249C76.0823 48.0354 77.6782 45.7367 79.1559 43.3616C79.9196 42.1554 80.6621 40.928 81.4046 39.6962L82.4992 37.8465L83.5557 36.0266L91.4262 40.2886Z" fill="#093CAF"/>
<path d="M84.6084 129.25H79.9667L77.6289 118.446H82.2748L84.6084 129.25V129.25Z" fill="#FF8B7B"/>
<path d="M79.7092 128.253H84.9279C85.1141 128.259 85.2742 128.387 85.3225 128.568L86.2389 132.719C86.2832 132.924 86.2318 133.137 86.0994 133.298C85.9669 133.46 85.7682 133.551 85.5601 133.546C83.7399 133.516 82.8531 133.41 80.5578 133.41C79.1449 133.41 77.3332 133.555 75.3857 133.555C73.4382 133.555 73.1794 131.62 73.9771 131.445C77.5581 130.657 77.7957 129.574 78.954 128.538C79.1616 128.352 79.4309 128.25 79.7092 128.253Z" fill="#263238"/>
<g opacity="0.2">
<path d="M82.2791 118.45H77.6289L78.9272 124.434L83.484 124.02L82.2791 118.45V118.45Z" fill="black"/>
</g>
<path d="M90.4138 16.0077C92.1109 20.3209 93.2904 22.763 92.1703 25.8956C90.4732 30.6052 84.4525 31.0825 81.525 27.3575C78.8944 24.0033 76.5948 17.5122 79.9169 13.9449C81.3962 12.3368 83.5993 11.6137 85.7384 12.0341C87.8774 12.4544 89.6468 13.9583 90.4138 16.0077V16.0077Z" fill="#FF8B7B"/>
<path d="M82.2616 22.469C81.5657 23.4067 81.0311 24.1184 81.0311 24.1184C81.0311 24.1184 79.6013 20.5511 80.1486 18.9145C79.4528 17.5293 78.0484 19.5708 77.5181 16.873C76.9877 14.1751 79.2831 11.2769 80.1486 10.676C80.2378 10.9903 80.2779 11.3167 80.2674 11.6435C82.6063 9.73686 85.5787 8.79387 88.5834 9.00525C88.3323 9.38043 88.1724 9.80965 88.1167 10.2583C88.1167 10.2583 93.153 11.1107 94.2986 13.9748C93.8934 13.7805 93.4659 13.6374 93.0257 13.5486C93.949 14.8783 94.3147 16.5193 94.044 18.1175C93.6786 20.4482 93.4885 22.8032 93.4754 25.1626C93.5221 26.373 90.2169 28.6873 88.2016 26.2153C86.1862 23.7434 82.2616 22.469 82.2616 22.469Z" fill="#263238"/>
<path d="M84.3605 21.5398C84.6233 22.5445 84.5488 23.6081 84.1484 24.5659C83.6095 25.8445 82.5021 25.5376 81.9548 24.421C81.4584 23.4194 81.1402 21.5611 82.0184 20.6704C82.8967 19.7796 84.0296 20.3337 84.3605 21.5398Z" fill="#FF8B7B"/>
<path d="M93.0845 70.2209C93.0845 70.2209 71.5138 78.0801 70.8816 88.4752C69.7106 107.625 77.5047 122.785 77.5047 122.785L84.6497 122.017C84.6497 122.017 83.3768 115.855 82.4307 98.5081C81.2384 76.7078 118.071 99.0195 110.484 70.2209H93.0845Z" fill="#093CAF"/>
<path opacity="0.5" d="M93.0845 70.2209C93.0845 70.2209 71.5138 78.0801 70.8816 88.4752C69.7106 107.625 77.5047 122.785 77.5047 122.785L84.6497 122.017C84.6497 122.017 83.3768 115.855 82.4307 98.5081C81.2384 76.7078 118.071 99.0195 110.484 70.2209H93.0845Z" fill="white"/>
<path d="M75.5261 120.142C75.4922 120.142 76.6632 123.33 76.6632 123.33L85.5732 122.452L85.1277 119.554L75.5261 120.142Z" fill="#093CAF"/>
<path d="M64.5408 129.783H59.8948L58.5371 118.974H63.183L64.5408 129.783V129.783Z" fill="#FF8B7B"/>
<path d="M59.8631 128.249H64.9545C65.1439 128.246 65.3088 128.378 65.3491 128.564L66.274 132.711C66.3288 132.917 66.2839 133.137 66.1529 133.304C66.0219 133.472 65.82 133.568 65.6079 133.563C63.7792 133.533 61.1317 133.431 58.8193 133.435C56.1293 133.435 55.616 133.585 52.455 133.589C50.5457 133.589 50.0154 131.658 50.813 131.458C54.4449 130.657 55.6075 130.567 58.7429 128.619C59.0739 128.392 59.4623 128.263 59.8631 128.249Z" fill="#263238"/>
<path opacity="0.2" d="M58.5449 118.979L59.2832 124.864L63.8909 124.549L63.1909 118.979H58.5449V118.979Z" fill="black"/>
<path d="M85.64 70.2209C85.64 70.2209 50.297 73.3706 50.6789 91.2029C51.0734 109.751 57.9723 122.26 57.9723 122.26H64.8712C64.8712 122.26 63.5644 112.637 63.7978 94.3782C63.8657 88.91 74.8716 87.1029 85.6145 86.4636C94.8979 85.9095 103.587 80.5947 107.194 71.9726L107.936 70.2209H85.64Z" fill="#093CAF"/>
<path opacity="0.5" d="M85.64 70.2209C85.64 70.2209 50.297 73.3706 50.6789 91.2029C51.0734 109.751 57.9723 122.26 57.9723 122.26H64.8712C64.8712 122.26 63.5644 112.637 63.7978 94.3782C63.8657 88.91 74.8716 87.1029 85.6145 86.4636C94.8979 85.9095 103.587 80.5947 107.194 71.9726L107.936 70.2209H85.64Z" fill="white"/>
<path d="M56.3521 120.398C56.3224 120.398 57.5359 123.603 57.5359 123.603L65.8688 123.002L65.3809 120.104L56.3521 120.398Z" fill="#093CAF"/>
<path d="M94.9163 50.1806L90.4316 67.5399C89.2849 71.9872 88.706 76.563 88.709 81.1571V89.2251C88.709 91.2623 90.2025 92.916 92.0481 92.916H115.036C116.882 92.916 118.375 91.2623 118.375 89.2251V81.1571C118.374 76.5628 118.954 71.987 120.102 67.5399L124.06 52.1965C124.671 49.8396 123.068 47.5083 120.849 47.5083H98.1239C96.5721 47.5573 95.2513 48.6578 94.9163 50.1806Z" fill="#263238"/>
<path d="M66.3228 84.5114L67.0738 88.8161C67.4726 91.0792 69.454 92.9161 71.5033 92.9161H97.0581C99.1074 92.9161 100.452 91.0792 100.054 88.8161L99.3025 84.5114C98.8486 81.9329 96.5956 79.8445 94.262 79.8445H69.7468C67.3963 79.8445 65.8731 81.9329 66.3228 84.5114Z" fill="#263238"/>
<path d="M99.5192 97.238H86.133L84.8262 92.9163H100.826L99.5192 97.238V97.238Z" fill="#093CAF"/>
<rect x="90.4375" y="97.238" width="4.7817" height="32.14" fill="#093CAF"/>
<path opacity="0.7" d="M95.2192 129.378H90.4375V98.0093L95.2192 98.4994V129.378V129.378Z" fill="white"/>
<path opacity="0.7" d="M94.0495 129.378H92.9082V98.2607L94.0495 98.3801V129.378V129.378Z" fill="white"/>
<path d="M103.823 134.347H81.8281C81.5651 134.345 81.3331 134.174 81.2523 133.922C81.1714 133.671 81.2598 133.396 81.4717 133.239L84.9593 130.682C86.636 129.449 88.6598 128.783 90.7381 128.781H94.9173C96.9942 128.783 99.0165 129.449 100.692 130.682L104.184 133.239C104.396 133.396 104.484 133.673 104.402 133.924C104.32 134.176 104.087 134.347 103.823 134.347V134.347Z" fill="#093CAF"/>
</svg>
