<svg width="40" height="40" viewBox="0 0 40 40" fill="none" xmlns="http://www.w3.org/2000/svg">
<path d="M28.696 29.6977C28.2459 30.1478 27.6355 30.4006 26.999 30.4006C26.3625 30.4006 25.7521 30.1478 25.302 29.6977L20 23.6377L14.698 29.6957C14.4758 29.9216 14.2111 30.1012 13.9192 30.2242C13.6272 30.3472 13.3138 30.4112 12.997 30.4125C12.6802 30.4138 12.3662 30.3524 12.0733 30.2317C11.7803 30.1111 11.5142 29.9336 11.2901 29.7096C11.0661 29.4856 10.8887 29.2194 10.768 28.9265C10.6474 28.6335 10.5859 28.3196 10.5872 28.0028C10.5885 27.686 10.6525 27.3725 10.7755 27.0806C10.8986 26.7886 11.0782 26.5239 11.304 26.3017L16.82 20.0017L11.302 13.6977C11.0762 13.4755 10.8966 13.2108 10.7735 12.9189C10.6505 12.6269 10.5865 12.3135 10.5852 11.9967C10.5839 11.6799 10.6454 11.3659 10.766 11.073C10.8867 10.78 11.0641 10.5139 11.2881 10.2899C11.5122 10.0658 11.7783 9.88838 12.0713 9.76774C12.3642 9.64709 12.6782 9.58564 12.995 9.58693C13.3118 9.58822 13.6252 9.65223 13.9172 9.77525C14.2091 9.89828 14.4738 10.0779 14.696 10.3037L20 16.3657L25.302 10.3037C25.5242 10.0779 25.7889 9.89828 26.0809 9.77525C26.3728 9.65223 26.6863 9.58822 27.0031 9.58693C27.3199 9.58564 27.6338 9.64709 27.9268 9.76774C28.2197 9.88838 28.4859 10.0658 28.7099 10.2899C28.9339 10.5139 29.1114 10.78 29.232 11.073C29.3527 11.3659 29.4141 11.6799 29.4128 11.9967C29.4115 12.3135 29.3475 12.6269 29.2245 12.9189C29.1015 13.2108 28.9219 13.4755 28.696 13.6977L23.18 20.0017L28.696 26.3017C28.9192 26.5246 29.0962 26.7893 29.217 27.0807C29.3377 27.372 29.3999 27.6843 29.3999 27.9997C29.3999 28.3151 29.3377 28.6274 29.217 28.9188C29.0962 29.2101 28.9192 29.4748 28.696 29.6977Z" fill="black"/>
</svg>
